<?xml version="1.0" encoding="UTF-8"?>
<svg width="800px" height="400px" viewBox="0 0 800 400" version="1.1" xmlns="http://www.w3.org/2000/svg" xmlns:xlink="http://www.w3.org/1999/xlink">
    <title>logo-spotify</title>
    <g id="logo-spotify" stroke="none" stroke-width="1" fill="none" fill-rule="evenodd">
        <g id="spotify-1" transform="translate(82.000000, 111.000000)" fill="#2EBD59" fill-rule="nonzero">
            <path d="M61.1158653,67.622406 C35.9282838,61.6122869 31.444384,57.3941474 31.444384,48.5304668 C31.444384,40.156839 39.3233858,34.5215306 51.0400562,34.5215306 C62.3978754,34.5215306 73.659835,38.8007274 85.4670893,47.6102233 C85.8242484,47.8769635 86.2719913,47.9831416 86.7126668,47.9135182 C87.1534417,47.8472814 87.543649,47.6049443 87.8014645,47.2406916 L100.099962,29.8936193 C100.605141,29.178959 100.467474,28.194172 99.7864025,27.64854 C85.7337641,16.3656719 69.9094652,10.8801682 51.4130427,10.8801682 C24.2169886,10.8801682 5.22056322,27.2109786 5.22056322,50.5769353 C5.22056322,75.6335741 21.6074774,84.5058207 49.9253774,91.3543086 C74.0276451,96.9094356 78.0952574,101.563543 78.0952574,109.883185 C78.0952574,119.102254 69.869449,124.833481 56.6320651,124.833481 C41.9297116,124.833481 29.9378056,119.877971 16.5226385,108.253361 C16.1899669,107.965704 15.7334641,107.835123 15.3120005,107.859526 C14.8677415,107.896081 14.4618065,108.101763 14.1797025,108.441713 L0.390055859,124.863163 C-0.18828708,125.544655 -0.115123214,126.56261 0.553903101,127.151869 C16.1620949,141.094668 35.3588001,148.459205 56.0747256,148.459205 C85.3801885,148.459205 104.317648,132.436869 104.317648,107.638205 C104.369745,86.7038868 91.844888,75.1124447 61.1683243,67.6451158 L61.1158653,67.622406 L61.1158653,67.622406 Z M170.617585,42.7661709 C157.915044,42.7661709 147.496111,47.7722794 138.904583,58.03022 L138.904583,46.4840979 C138.904583,45.57252 138.165977,44.8299705 137.256654,44.8299705 L114.703071,44.8299705 C113.792057,44.8299705 113.055142,45.57252 113.055142,46.4840979 L113.055142,174.77763 C113.055142,175.689208 113.791957,176.431758 114.703071,176.431758 L137.256654,176.431758 C138.165977,176.431758 138.904583,175.689308 138.904583,174.77763 L138.904583,134.280842 C147.497903,143.9305 157.918528,148.645565 170.617585,148.645565 C194.21985,148.645565 218.113216,130.465403 218.113216,95.7119935 C218.148018,60.9499188 194.247822,42.7644776 170.643765,42.7644776 L170.617585,42.7661709 Z M191.887366,95.7119935 C191.887366,113.409474 180.992918,125.759103 165.393287,125.759103 C149.971539,125.759103 138.338484,112.848104 138.338484,95.7119935 C138.338484,78.5776758 149.971539,65.6649837 165.393287,65.6649837 C180.740378,65.6631908 191.889158,78.2969911 191.889158,95.7102007 L191.887366,95.7119935 L191.887366,95.7119935 Z M279.352926,42.7661709 C248.956874,42.7661709 225.143777,66.186113 225.143777,96.0901908 C225.143777,125.668364 248.793126,148.842482 278.980139,148.842482 C309.484195,148.842482 333.370356,125.501028 333.370356,95.7118939 C333.370356,66.0256506 309.644359,42.7696571 279.351134,42.7696571 L279.352926,42.7661709 L279.352926,42.7661709 Z M279.352926,125.935104 C263.185404,125.935104 250.996702,112.936951 250.996702,95.7032284 C250.996702,78.3961969 262.76394,65.8373986 278.980039,65.8373986 C295.252081,65.8373986 307.522607,78.8354516 307.522607,96.0814256 C307.522607,113.384971 295.677128,125.935104 279.354519,125.935104 L279.352926,125.935104 L279.352926,125.935104 Z M398.278749,44.8300701 L373.46057,44.8300701 L373.46057,19.4404544 C373.46057,18.5305698 372.725448,17.7880203 371.814433,17.7880203 L349.264334,17.7880203 C348.351528,17.7880203 347.611229,18.5305698 347.611229,19.4404544 L347.611229,44.8300701 L336.767249,44.8300701 C335.859719,44.8300701 335.124497,45.57252 335.124497,46.4841975 L335.124497,65.879332 C335.124497,66.7892166 335.859719,67.5334594 336.767249,67.5334594 L347.611229,67.5334594 L347.611229,117.718253 C347.611229,137.998869 357.699083,148.281312 377.594379,148.281312 C385.684311,148.281312 392.396076,146.609654 398.721316,143.020715 C399.235155,142.733058 399.553891,142.17886 399.553891,141.589701 L399.553891,123.120089 C399.553891,122.550054 399.257652,122.011494 398.769992,121.713478 C398.278749,121.404904 397.667358,121.389266 397.163871,121.638476 C392.819232,123.826084 388.619427,124.835274 383.924695,124.835274 C376.68854,124.835274 373.46057,121.547836 373.46057,114.179912 L373.46057,67.5423242 L398.278749,67.5423242 C399.189764,67.5423242 399.923194,66.7997747 399.923194,65.8881968 L399.923194,46.4947556 C399.958034,45.5831777 399.226395,44.8406282 398.303237,44.8406282 L398.278749,44.8300701 L398.278749,44.8300701 Z M484.75147,44.9293755 L484.75147,41.8109664 C484.75147,32.6371182 488.26672,28.5461733 496.151097,28.5461733 C500.852697,28.5461733 504.629446,29.480461 508.858914,30.8923509 C509.379821,31.0562995 509.923225,30.9743252 510.34658,30.6622651 C510.782079,30.3502051 511.02775,29.8499927 511.02775,29.3200982 L511.02775,10.3031609 C511.02775,9.57624929 510.560895,8.93310479 509.860513,8.71865688 C505.392241,7.38864163 499.675107,6.0238645 491.115034,6.0238645 C470.284137,6.0238645 459.273025,17.7617247 459.273025,39.956236 L459.273025,44.7322588 L448.437805,44.7322588 C447.528483,44.7322588 446.782908,45.4748083 446.782908,46.3846929 L446.782908,65.8792324 C446.782908,66.789117 447.528483,67.5333598 448.437805,67.5333598 L459.273025,67.5333598 L459.273025,144.941383 C459.273025,145.852961 460.008148,146.595511 460.91757,146.595511 L483.471152,146.595511 C484.382167,146.595511 485.124258,145.852961 485.124258,144.941383 L485.124258,67.5387384 L506.181515,67.5387384 L538.43802,144.927638 C534.776343,153.059028 531.175486,154.676601 526.25977,154.676601 C522.286226,154.676601 518.101949,153.489518 513.823506,151.146826 C513.421154,150.925406 512.943847,150.888851 512.51014,151.023118 C512.079817,151.174715 511.717581,151.495441 511.534621,151.913779 L503.890739,168.694302 C503.526612,169.487451 503.83848,170.418352 504.601474,170.829618 C512.581512,175.154134 519.784818,177 528.688114,177 C545.341504,177 554.546314,169.238141 562.660535,148.356115 L601.787376,47.1882998 C601.984172,46.6793222 601.925044,46.1041078 601.613177,45.6527014 C601.3033,45.2046816 600.803198,44.934555 600.256111,44.934555 L576.777478,44.934555 C576.073911,44.934555 575.444701,45.3824752 575.214957,46.04315 L551.163356,114.786402 L524.819189,45.9978301 C524.578893,45.3580721 523.962226,44.9344554 523.279363,44.9344554 L484.746294,44.9344554 L484.75147,44.9293755 L484.75147,44.9293755 Z M434.616802,44.8300701 L412.06322,44.8300701 C411.152105,44.8300701 410.410114,45.57252 410.410114,46.4841975 L410.410114,144.941483 C410.410114,145.853061 411.152105,146.59561 412.06322,146.59561 L434.616802,146.59561 C435.526125,146.59561 436.269912,145.853061 436.269912,144.941483 L436.269912,46.4910702 C436.27089,46.0517393 436.09678,45.6301466 435.78614,45.3196696 C435.4755,45.0091927 435.053969,44.8354569 434.614911,44.8369428 L434.616802,44.8300701 Z M423.468023,0 C414.533371,0 407.28318,7.2371436 407.28318,16.1774199 C407.28318,25.1228756 414.535163,32.368884 423.468122,32.368884 C432.39939,32.368884 439.642413,25.1228756 439.642413,16.1774199 C439.642413,7.23893647 432.395806,0 423.476882,0 L423.468023,0 L423.468023,0 Z M621.045002,76.4858874 C612.11901,76.4858874 605.173818,69.3130882 605.173818,60.6029972 C605.173818,51.8929063 612.209693,44.6382324 621.128617,44.6382324 C630.054808,44.6382324 637,51.8092388 637,60.5123574 C637,69.2225479 629.962233,76.4858874 621.043409,76.4858874 L621.045002,76.4858874 L621.045002,76.4858874 Z M621.132101,46.2174574 C613.002252,46.2174574 606.851212,52.6842619 606.851212,60.6029972 C606.851212,68.518346 612.958652,74.8979968 621.050277,74.8979968 C629.178335,74.8979968 635.336443,68.4364714 635.336443,60.5123574 C635.336443,52.5971082 629.221935,46.2174574 621.139169,46.2174574 L621.132101,46.2174574 L621.132101,46.2174574 Z M624.651134,62.1455679 L629.14031,68.4346785 L625.355,68.4346785 L621.313369,62.6651036 L617.838334,62.6651036 L617.838334,68.4346785 L614.669691,68.4346785 L614.669691,51.7639188 L622.099258,51.7639188 C625.969975,51.7639188 628.515082,53.7457442 628.515082,57.0820874 C628.532402,59.8152274 626.947285,61.4850923 624.66517,62.1456675 L624.651134,62.1456675 L624.651134,62.1455679 Z M621.968459,54.6243531 L617.836243,54.6243531 L617.836243,59.8972017 L621.968459,59.8972017 C624.030884,59.8972017 625.262326,58.887912 625.262326,57.2581877 C625.262326,55.5430029 624.025608,54.6244527 621.970052,54.6244527 L621.968459,54.6244527 L621.968459,54.6243531 Z" id="Shape"></path>
        </g>
    </g>
</svg>