<?xml version="1.0" encoding="UTF-8"?>
<svg width="800px" height="400px" viewBox="0 0 800 400" version="1.1" xmlns="http://www.w3.org/2000/svg" xmlns:xlink="http://www.w3.org/1999/xlink">
    <title>logo-amazon</title>
    <g id="logo-amazon" stroke="none" stroke-width="1" fill="none" fill-rule="evenodd">
        <g id="amazon-2" transform="translate(87.000000, 134.000000)" fill-rule="nonzero">
            <path d="M387.362916,147.018354 C351.216841,173.755043 298.640733,188 253.293839,188 C189.764374,188 132.806923,164.550609 89.4316337,125.541341 C86.1456269,122.473196 88.9934994,118.309286 93.1557747,120.719971 C139.817071,147.894966 197.431724,164.112302 257.01798,164.112302 C297.107263,164.112302 341.358821,155.784481 382.105305,138.471379 C388.239185,136.060694 393.277728,142.63529 387.362916,147.018354 Z" id="Path" fill="#FF9900"></path>
            <path d="M402.226719,129.183945 C397.633448,123.271128 371.604915,126.337033 360.012376,127.869986 C356.512741,128.307972 355.85656,125.242067 359.137467,123.052134 C379.916548,108.379588 413.819258,112.759452 417.756347,117.577304 C421.693436,122.395155 416.662712,156.5581 397.195994,172.7636 C394.133814,175.172525 391.29036,173.858566 392.602723,170.573667 C396.977267,159.624005 406.819989,135.315756 402.226719,129.183945 Z" id="Path" fill="#FF9900"></path>
            <path d="M361.184211,20.5798817 L361.184211,6.34911243 C361.184211,4.15976331 362.719298,2.84615385 364.692982,2.84615385 L428.289474,2.84615385 C430.263158,2.84615385 432.017544,4.37869822 432.017544,6.34911243 L432.017544,18.3905325 C432.017544,20.3609467 430.263158,22.9881657 427.192982,27.3668639 L394.298246,74.2189349 C406.578947,74 419.517544,75.7514793 430.482456,81.8816568 C432.894737,83.1952663 433.552632,85.3846154 433.77193,87.3550296 L433.77193,102.461538 C433.77193,104.650888 431.578947,107.059172 429.166667,105.745562 C409.649123,95.4556213 383.552632,94.3609467 362.061404,105.964497 C359.868421,107.059172 357.45614,104.869822 357.45614,102.680473 L357.45614,88.2307692 C357.45614,86.0414201 357.45614,82.1005917 359.868421,78.5976331 L398.026316,24.0828402 L364.912281,24.0828402 C362.938596,24.0828402 361.184211,22.5502959 361.184211,20.5798817 L361.184211,20.5798817 Z M129.385965,108.810651 L110.087719,108.810651 C108.333333,108.591716 106.798246,107.278107 106.578947,105.526627 L106.578947,6.56804734 C106.578947,4.59763314 108.333333,3.06508876 110.307018,3.06508876 L128.289474,3.06508876 C130.263158,3.06508876 131.578947,4.59763314 131.798246,6.34911243 L131.798246,19.2662722 L132.236842,19.2662722 C136.842105,6.78698225 145.833333,0.875739645 157.675439,0.875739645 C169.736842,0.875739645 177.412281,6.78698225 182.675439,19.2662722 C187.280702,6.78698225 198.026316,0.875739645 209.429825,0.875739645 C217.54386,0.875739645 226.315789,4.15976331 231.798246,11.8224852 C237.938596,20.1420118 236.622807,32.183432 236.622807,42.9112426 L236.622807,105.526627 C236.622807,107.497041 234.868421,109.029586 232.894737,109.029586 L213.815789,109.029586 C211.842105,108.810651 210.307018,107.278107 210.307018,105.526627 L210.307018,52.9822485 C210.307018,48.8224852 210.745614,38.3136095 209.868421,34.3727811 C208.333333,27.8047337 204.166667,25.8343195 198.464912,25.8343195 C193.859649,25.8343195 188.815789,28.8994083 186.842105,33.9349112 C184.868421,38.9704142 185.087719,47.2899408 185.087719,52.9822485 L185.087719,105.526627 C185.087719,107.497041 183.333333,109.029586 181.359649,109.029586 L162.061404,109.029586 C160.087719,108.810651 158.552632,107.278107 158.552632,105.526627 L158.552632,52.9822485 C158.552632,42.035503 160.307018,25.6153846 146.710526,25.6153846 C132.894737,25.6153846 133.333333,41.3786982 133.333333,52.9822485 L133.333333,105.526627 C133.114035,107.278107 131.578947,108.810651 129.385965,108.810651 L129.385965,108.810651 Z M486.842105,0.875739645 C515.570175,0.875739645 531.140351,25.3964497 531.140351,56.704142 C531.140351,86.9171598 514.035088,111 486.842105,111 C458.77193,111 443.421053,86.4792899 443.421053,55.8284024 C443.201754,24.9585799 458.77193,0.875739645 486.842105,0.875739645 Z M486.842105,21.2366864 C472.587719,21.2366864 471.710352,40.7218935 471.710352,52.7633136 C471.710352,64.8047337 471.491228,90.6390533 486.622807,90.6390533 C501.535088,90.6390533 502.412281,69.8402367 502.412281,57.1420118 C502.412281,48.8224852 501.973684,38.7514793 499.561404,30.8698225 C497.368421,23.8639053 492.982456,21.2366864 486.842105,21.2366864 Z M568.201754,108.810651 L548.903509,108.810651 C546.929825,108.591716 545.394737,107.059172 545.394737,105.307692 L545.394737,6.13017751 C545.614035,4.37869822 547.149123,2.84615385 549.122807,2.84615385 L567.105263,2.84615385 C568.859649,2.84615385 570.175439,4.15976331 570.614035,5.69230769 L570.614035,20.7988166 L571.052632,20.7988166 C576.535088,7.22485207 583.991228,0.875739645 597.368421,0.875739645 C605.921053,0.875739645 614.473684,3.9408284 619.95614,12.4792899 C625,20.3609467 625,33.7159763 625,43.3491124 L625,105.745562 C624.780702,107.497041 623.245614,108.810651 621.27193,108.810651 L601.973684,108.810651 C600.219298,108.591716 598.684211,107.278107 598.464912,105.745562 L598.464912,51.887574 C598.464912,40.9408284 599.780702,25.1775148 586.403509,25.1775148 C581.798246,25.1775148 577.412281,28.2426036 575.219298,33.0591716 C572.587719,39.1893491 572.149123,45.1005917 572.149123,51.887574 L572.149123,105.307692 C571.929825,107.278107 570.175439,108.810651 568.201754,108.810651 L568.201754,108.810651 Z M300.219298,0 C309.649123,0 321.929825,2.40828402 329.385965,9.63313609 C338.815789,18.3905325 337.938596,30.2130178 337.938596,42.9112426 L337.938596,72.9053254 C337.938596,80.2193732 340.413749,84.1902338 343.228628,88.1341767 L343.61438,88.6721317 C344.130989,89.3900131 344.655621,90.1119877 345.175439,90.8579882 C346.491228,92.6094675 346.710526,94.7988166 345.175439,95.8934911 C343.240915,97.4182164 340.691852,99.5564621 338.120842,101.738531 L336.934822,102.746676 C334.371084,104.928745 331.876566,107.066991 330.04386,108.591716 C328.72807,109.686391 326.973684,109.905325 325.438596,109.029586 C319.078947,103.775148 317.763158,101.147929 314.254386,96.112426 C303.72807,106.840237 296.052632,110.12426 282.45614,110.12426 C266.22807,110.12426 253.508772,100.053254 253.508772,80.1301775 C253.508772,64.3668639 262.061404,53.8579882 274.122807,48.6035503 C284.649123,44.0059172 299.342105,43.1301775 310.526316,41.816568 L310.526316,39.408284 C310.526316,34.8106509 310.964912,29.3372781 308.114035,25.3964497 C305.701754,21.8934911 301.315789,20.3609467 297.368421,20.3609467 C289.912281,20.3609467 283.333333,24.0828402 281.798246,31.964497 C281.359649,33.7159763 280.263158,35.4674556 278.508772,35.4674556 L259.868421,33.4970414 C258.333333,33.0591716 256.578947,31.964497 257.017544,29.556213 C261.403509,6.78698225 281.798246,0 300.219298,0 Z M308.236842,59.3609467 C294.201754,59.3609467 279.508772,62.4260355 279.508772,78.8461538 C279.508772,87.1656805 283.894737,92.8579882 291.350877,92.8579882 C296.833333,92.8579882 301.657895,89.5739645 304.72807,84.1005917 C308.45614,77.3136095 308.236842,70.964497 308.236842,63.5207101 L308.236842,63.5207101 Z M46.7105263,0 C56.1403509,0 68.4210526,2.40828402 75.877193,9.63313609 C84.8234368,17.9414353 84.4926872,29.0085159 84.4352369,40.964874 L84.4313662,41.9362203 C84.4304013,42.2606274 84.4298246,42.5856471 84.4298246,42.9112426 L84.4298246,72.9053254 C84.4298246,80.2193732 86.9049768,84.1902338 89.7198558,88.1341767 L90.1056081,88.6721317 C90.6222174,89.3900131 91.1468486,90.1119877 91.6666667,90.8579882 C92.9824561,92.6094675 93.2017544,94.7988166 91.6666667,95.8934911 C87.5,99.1775148 80.4824561,105.307692 76.5350877,108.591716 C75.2192982,109.686391 73.4649123,109.905325 71.9298246,109.029586 C65.5701754,103.775148 64.254386,101.147929 60.745614,96.112426 C50.2192982,106.840237 42.5438596,110.12426 28.9473684,110.12426 C12.7192982,110.12426 0,100.053254 0,80.1301775 C0,64.3668639 8.55263158,53.8579882 20.6140351,48.6035503 C31.1403509,44.0059172 45.8333333,43.1301775 57.0175439,41.816568 L57.0175439,39.408284 C57.0175439,34.8106509 57.4561404,29.3372781 54.6052632,25.3964497 C52.1929825,21.8934911 47.8070175,20.3609467 43.8596491,20.3609467 C36.4035088,20.3609467 29.8245614,24.0828402 28.2894737,31.964497 C27.8508772,33.7159763 26.754386,35.4674556 25,35.4674556 L6.35964912,33.4970414 C4.8245614,33.0591716 3.07017544,31.964497 3.50877193,29.556213 C7.89473684,6.78698225 28.2894737,0 46.7105263,0 Z M57.2368421,57.3609467 C43.2017544,57.3609467 28.5087719,60.4260355 28.5087719,76.8461538 C28.5087719,85.1656805 32.8947368,90.8579882 40.3508772,90.8579882 C45.8333333,90.8579882 50.6578947,87.5739645 53.7280702,82.1005917 C57.4561404,75.3136095 57.2368421,68.964497 57.2368421,61.5207101 L57.2368421,61.5207101 Z" id="Shape" fill="#000000"></path>
        </g>
    </g>
</svg>