<?xml version="1.0" encoding="UTF-8"?>
<svg width="700px" height="70px" viewBox="0 0 700 70" version="1.1" xmlns="http://www.w3.org/2000/svg" xmlns:xlink="http://www.w3.org/1999/xlink">
    <title>Menu</title>
    <g id="Menu" stroke="none" stroke-width="1" fill="none" fill-rule="evenodd">
        <rect id="Rectangle" fill="#00A8F4" x="0" y="0" width="700" height="70" rx="8"></rect>
        <text font-family="Roboto-Medium, Roboto" font-size="16" font-weight="400" line-spacing="14" fill="#FFFFFF">
            <tspan x="21" y="43">Menu</tspan>
        </text>
        <rect id="Rectangle-Copy-2" fill-opacity="0.3" fill="#FFFFFF" x="512" y="9" width="56" height="52" rx="8"></rect>
        <g id="account" transform="translate(587.000000, 26.000000)" fill="#FFFFFF" fill-rule="nonzero">
            <path d="M9,0 C4.0275,0 0,4.0275 0,9 C0,13.9725 4.0275,18 9,18 C13.9725,18 18,13.9725 18,9 C18,4.0275 13.9725,0 9,0 Z M9,2.7 C10.4895,2.7 11.7,3.9105 11.7,5.4 C11.7,6.894 10.4895,8.1 9,8.1 C7.5105,8.1 6.3,6.894 6.3,5.4 C6.3,3.9105 7.5105,2.7 9,2.7 Z M9,15.48 C6.7455,15.48 4.7655,14.328 3.6,12.582 C3.6225,10.7955 7.2045,9.81 9,9.81 C10.7955,9.81 14.373,10.7955 14.4,12.582 C13.2345,14.328 11.2545,15.48 9,15.48 Z" id="Shape"></path>
        </g>
        <g id="world" transform="translate(531.000000, 26.000000)" fill="#FFFFFF" fill-rule="nonzero">
            <path d="M8.9955,0 C4.023,0 0,4.0275 0,9 C0,13.9725 4.023,18 8.9955,18 C13.968,18 18,13.9725 18,9 C18,4.0275 13.968,0 8.9955,0 Z M15.228,5.4 L12.573,5.4 C12.2805,4.275 11.871,3.195 11.331,2.196 C12.987,2.763 14.364,3.9105 15.228,5.4 L15.228,5.4 Z M9,1.8315 C9.7515,2.9115 10.3365,4.113 10.719,5.4 L7.281,5.4 C7.6635,4.113 8.2485,2.9115 9,1.8315 Z M2.034,10.8 C1.8855,10.224 1.8,9.621 1.8,9 C1.8,8.379 1.8855,7.776 2.034,7.2 L5.0715,7.2 C4.9995,7.7895 4.95,8.388 4.95,9 C4.95,9.612 4.9995,10.2105 5.076,10.8 L2.034,10.8 Z M2.7675,12.6 L5.4225,12.6 C5.715,13.725 6.1245,14.805 6.6645,15.8085 C5.0085,15.2415 3.6315,14.0895 2.7675,12.6 Z M5.4225,5.4 L2.7675,5.4 C3.6315,3.9105 5.0085,2.7585 6.6645,2.1915 C6.1245,3.195 5.715,4.275 5.4225,5.4 Z M9,16.1685 C8.253,15.0885 7.668,13.887 7.281,12.6 L10.719,12.6 C10.332,13.887 9.747,15.0885 9,16.1685 Z M11.106,10.8 L6.894,10.8 C6.8085,10.2105 6.75,9.612 6.75,9 C6.75,8.388 6.8085,7.7895 6.894,7.2 L11.106,7.2 C11.1915,7.7895 11.25,8.388 11.25,9 C11.25,9.612 11.1915,10.2105 11.106,10.8 Z M11.3355,15.804 C11.8755,14.8005 12.285,13.725 12.5775,12.6 L15.2325,12.6 C14.364,14.0895 12.987,15.237 11.3355,15.804 L11.3355,15.804 Z M12.924,10.8 C12.996,10.2105 13.05,9.612 13.05,9 C13.05,8.388 13.0005,7.7895 12.924,7.2 L15.9615,7.2 C16.11,7.776 16.2,8.379 16.2,9 C16.2,9.621 16.1145,10.224 15.9615,10.8 L12.924,10.8 Z" id="Shape"></path>
        </g>
        <path d="M658.714067,35.882 C658.750067,35.594 658.777067,35.306 658.777067,35 C658.777067,34.694 658.750067,34.406 658.714067,34.118 L660.613067,32.633 C660.784067,32.498 660.829067,32.255 660.721067,32.057 L658.921067,28.943 C658.813067,28.745 658.570067,28.673 658.372067,28.745 L656.131067,29.645 C655.663067,29.285 655.159067,28.988 654.610067,28.763 L654.268067,26.378 C654.241067,26.162 654.052067,26 653.827067,26 L650.227067,26 C650.002067,26 649.813067,26.162 649.786067,26.378 L649.444067,28.763 C648.895067,28.988 648.391067,29.294 647.923067,29.645 L645.682067,28.745 C645.475067,28.664 645.241067,28.745 645.133067,28.943 L643.333067,32.057 C643.216067,32.255 643.270067,32.498 643.441067,32.633 L645.340067,34.118 C645.304067,34.406 645.277067,34.703 645.277067,35 C645.277067,35.297 645.304067,35.594 645.340067,35.882 L643.441067,37.367 C643.270067,37.502 643.225067,37.745 643.333067,37.943 L645.133067,41.057 C645.241067,41.255 645.484067,41.327 645.682067,41.255 L647.923067,40.355 C648.391067,40.715 648.895067,41.012 649.444067,41.237 L649.786067,43.622 C649.813067,43.838 650.002067,44 650.227067,44 L653.827067,44 C654.052067,44 654.241067,43.838 654.268067,43.622 L654.610067,41.237 C655.159067,41.012 655.663067,40.706 656.131067,40.355 L658.372067,41.255 C658.579067,41.336 658.813067,41.255 658.921067,41.057 L660.721067,37.943 C660.829067,37.745 660.784067,37.502 660.613067,37.367 L658.714067,35.882 Z M652.027067,38.15 C650.290067,38.15 648.877067,36.737 648.877067,35 C648.877067,33.263 650.290067,31.85 652.027067,31.85 C653.764067,31.85 655.177067,33.263 655.177067,35 C655.177067,36.737 653.764067,38.15 652.027067,38.15 Z" id="Shape" fill="#FFFFFF" fill-rule="nonzero"></path>
    </g>
</svg>