<svg width="50" height="50" viewBox="0 0 50 50" fill="none" xmlns="http://www.w3.org/2000/svg">
<path d="M24.8799 25.3398C24.8799 22.1549 27.4619 19.5598 30.6598 19.5598C33.8447 19.5598 36.4398 22.1418 36.4398 25.3398C36.4398 28.5247 33.8578 31.1197 30.6598 31.1197C27.475 31.1197 24.8799 28.5247 24.8799 25.3398Z" fill="#1ABCFE"/>
<path d="M14 36.2199C14 33.035 16.582 30.4399 19.78 30.4399H25.5599V36.2199C25.5599 39.4048 22.9779 41.9999 19.78 41.9999C16.582 41.9999 14 39.4179 14 36.2199V36.2199Z" fill="#0ACF83"/>
<path d="M24.8799 8.01311V19.5599H30.6598C33.8447 19.5599 36.4398 16.9779 36.4398 13.78C36.4398 10.5951 33.8578 8 30.6598 8H24.8799V8.01311Z" fill="#FF7262"/>
<path d="M14 13.78C14 16.9648 16.582 19.5599 19.78 19.5599H25.5599V8H19.78C16.582 8 14 10.582 14 13.78Z" fill="#F24E1E"/>
<path d="M14 25.3398C14 28.5247 16.582 31.1197 19.78 31.1197H25.5599V19.5598H19.78C16.582 19.5598 14 22.1549 14 25.3398Z" fill="#A259FF"/>
</svg>
