<?xml version="1.0" encoding="UTF-8"?>
<svg width="800px" height="400px" viewBox="0 0 800 400" version="1.1" xmlns="http://www.w3.org/2000/svg" xmlns:xlink="http://www.w3.org/1999/xlink">
    <title>logo-netflix</title>
    <g id="logo-netflix" stroke="none" stroke-width="1" fill="none" fill-rule="evenodd">
        <g id="netflix-3" transform="translate(50.000000, 105.000000)" fill="#E50914" fill-rule="nonzero">
            <path d="M662.553214,89.9637809 L700,189 C688.96407,187.425558 677.934231,185.453322 666.703393,183.67656 L645.60836,128.955185 L623.933931,179.159356 C613.295432,177.382594 602.84575,176.790847 592.20649,175.411118 L630.240286,88.786372 L595.743774,0 L627.672976,0 L646.982617,49.6063391 L667.68022,0 L699.993909,0 L662.553214,89.9637809 Z M570.532061,0 L541.560747,0 L541.560747,171.675051 C551.020659,172.267558 560.870388,172.657746 570.532061,173.835916 L570.532061,0 Z M516.530999,169.703575 C490.126995,167.932898 463.715377,166.364541 436.718272,165.765948 L436.718272,0.000760600109 L466.276596,0.000760600109 L466.276596,137.812373 C483.22754,138.203322 500.172394,139.576965 516.530999,140.364187 L516.530999,169.703575 Z M405.18041,67.1389323 L405.18041,96.6669497 L364.782588,96.6669497 L364.782588,163.799797 L335.622456,163.799797 L335.622456,0 L418.39231,0 L418.39231,29.5280174 L364.788679,29.5280174 L364.788679,67.1396929 L405.186501,67.1396929 L405.18041,67.1389323 Z M285.95354,29.5280174 L285.95354,165.375 C276.096958,165.375 266.051559,165.375 256.389887,165.765948 L256.389887,29.5280174 L225.842555,29.5280174 L225.842555,0 L316.689689,0 L316.689689,29.5280174 L285.95354,29.5280174 Z M193.920205,98.2360677 C180.916157,98.2360677 165.54123,98.2360677 154.5053,98.83466 L154.5053,142.732695 C171.847584,141.548441 189.189868,140.174797 206.727061,139.58305 L206.727061,167.932898 L124.947738,174.434508 L124.947738,0 L206.721731,0 L206.721731,29.5280174 L154.504539,29.5280174 L154.504539,69.2997972 C165.937899,69.2997972 183.475853,68.7080503 193.918682,68.7080503 L193.918682,98.2421525 L193.920205,98.2360677 Z M30.1445716,81.6983396 L30.1445716,184.860814 C19.5121633,186.045069 10.0461602,187.424797 0,189 L0,0 L28.1833053,0 L66.6084407,107.302421 L66.6084407,0 L96.1720937,0 L96.1720937,176.790847 C85.728503,178.567609 75.0839129,179.159356 63.8523133,180.728474 L30.1445716,81.6983396 Z" id="Shape"></path>
        </g>
    </g>
</svg>