<?xml version="1.0" encoding="UTF-8"?>
<svg width="800px" height="400px" viewBox="0 0 800 400" version="1.1" xmlns="http://www.w3.org/2000/svg" xmlns:xlink="http://www.w3.org/1999/xlink">
    <title>logo-google</title>
    <g id="logo-google" stroke="none" stroke-width="1" fill="none" fill-rule="evenodd">
        <g id="google-2015" transform="translate(87.692783, 98.355624)" fill-rule="nonzero">
            <path d="M77.2135649,-0.355623761 L82.7665279,-0.355623761 C102.044739,0.0629663313 121.008632,7.80688304 134.629107,21.5157086 C129.600008,26.6434372 124.466137,31.5618708 119.541811,36.6895994 C111.89339,29.7828629 102.673376,24.4458392 92.6151792,22.5621838 C77.7374293,19.4227581 61.7071777,22.2482412 49.2392041,30.7246906 C35.6187289,39.61973 26.3987148,54.6889734 24.40803,70.8046919 C22.2077994,86.7111154 26.7130335,103.454719 37.0855493,115.803127 C47.0389735,127.837592 62.2310421,135.372214 77.9469751,135.895451 C92.6151792,136.732631 107.912021,132.232788 118.598855,121.977331 C126.980686,114.756652 130.857283,103.768662 132.114558,93.0946143 C114.722258,93.0946143 97.3299591,93.1992619 79.9376599,93.0946143 L79.9376599,71.5372246 L153.173908,71.5372246 C156.945732,94.6643272 151.497542,120.72156 133.895697,137.255869 C122.161133,148.976392 105.921336,155.883128 89.3672197,157.243546 C73.3369681,158.813259 56.782852,155.778481 42.5337394,148.034564 C25.4557589,138.930229 11.8352836,123.547044 5.12981885,105.443022 C-1.15655436,88.8040659 -1.26132724,69.9675117 4.60595441,53.223908 C9.94937163,37.9453697 20.2171145,24.4458392 33.4184983,15.0275621 C46.0960175,5.71393258 61.4976319,0.586203947 77.2135649,-0.355623761 Z" id="Path" fill="#3780FF"></path>
            <path d="M497.307217,5.64437624 L520.307217,5.64437624 L520.307217,155.61812 C512.676376,155.61812 504.938058,155.723144 497.307217,155.513097 C497.414694,105.626872 497.307217,55.6356243 497.307217,5.64437624 Z" id="Path" fill="#38B137"></path>
            <path d="M203.368195,57.575389 C217.188988,54.9515626 232.161513,57.8902482 243.574137,66.1815396 C253.939732,73.5282536 261.164237,85.0730898 263.362999,97.6674565 C266.189979,112.255931 262.630078,128.208796 253.206811,139.753632 C243.050622,152.662858 226.40285,159.58976 210.173889,158.540229 C195.306066,157.700605 180.857056,150.248938 172.062006,138.074383 C162.115224,124.640392 159.707055,106.168654 165.15161,90.4256957 C170.596165,73.5282536 185.987502,60.6190277 203.368195,57.575389 M206.509285,77.5164697 C200.855324,78.9858125 195.620175,82.2393573 191.850868,86.8572917 C181.69468,99.0318463 182.322898,118.867974 193.526116,130.202904 C199.912997,136.709993 209.545671,139.753632 218.445424,137.96943 C226.716958,136.500087 233.941464,130.937575 237.920177,123.590861 C244.830573,111.101448 242.841216,93.8891465 232.266216,84.1285123 C225.460523,77.8313289 215.51374,75.2075025 206.509285,77.5164697 Z" id="Shape" fill="#FA3913"></path>
            <path d="M314.365831,57.583512 C330.187752,54.5385788 347.476605,58.9484821 359.31685,70.0782379 C378.596541,87.4028578 380.69216,119.847146 364.241554,139.796708 C354.287365,152.396432 338.151102,159.32628 322.224401,158.591296 C307.031166,158.171305 292.047493,150.611471 283.036333,138.116745 C272.872583,124.362047 270.672184,105.462462 276.435135,89.397814 C282.198086,73.0181734 297.28654,60.5234475 314.365831,57.583512 M317.509259,77.5330743 C311.851089,79.0030421 306.612043,82.2579707 302.839929,86.7728716 C292.78096,98.742609 293.200084,118.27218 303.992519,129.716929 C310.384156,136.54178 320.338344,139.901706 329.559066,138.011747 C337.731979,136.436782 345.066644,130.976902 349.048319,123.627063 C355.859079,111.027339 353.868242,93.8077172 343.180587,84.0429315 C336.369827,77.7430697 326.415638,75.223125 317.509259,77.5330743 Z" id="Shape" fill="#FCBD06"></path>
            <path d="M407.969343,63.6872561 C420.069566,56.1160137 436.168124,54.0128908 449.215321,60.5325718 C453.318875,62.3202262 456.685894,65.3697545 459.947693,68.4192827 C460.052912,65.5800668 459.947693,62.6356947 460.052912,59.6913226 C467.102608,59.7964788 474.152303,59.6913226 481.307217,59.7964788 L481.307217,152.544199 C481.201998,166.529966 477.624541,181.356983 467.523485,191.557129 C456.475455,202.808837 439.535143,206.278989 424.27834,203.965554 C407.969343,201.546963 393.764734,189.664318 387.451574,174.62699 C393.764734,171.577461 400.393551,169.15887 406.91715,166.319654 C410.599827,174.942458 418.070399,182.303388 427.43492,183.985887 C436.79944,185.668385 447.637031,183.35495 453.739752,175.573395 C460.263351,167.581528 460.263351,156.645289 459.947693,146.865767 C455.107604,151.597794 449.530979,155.80404 442.796942,157.381382 C428.171455,161.482471 412.072897,156.434976 400.814429,146.550299 C389.450741,136.665621 382.716704,121.41798 383.34802,106.275495 C383.663678,89.1350433 393.343856,72.6255285 407.969343,63.6872561 M429.749745,77.1472428 C423.331366,78.1988042 417.333864,81.7741132 413.23031,86.716452 C403.339693,98.4939403 403.339693,117.31689 413.335529,128.884066 C419.017373,135.719216 428.171455,139.504837 437.009879,138.558432 C445.322206,137.717183 453.003217,132.459375 457.106771,125.203601 C464.051247,112.900332 462.893834,96.1805051 453.529314,85.4545782 C447.742251,78.8297411 438.482949,75.5699006 429.749745,77.1472428 L429.749745,77.1472428 Z" id="Shape" fill="#3780FF"></path>
            <path d="M547.202819,69.0892892 C559.783393,57.3368923 579.178445,53.3494719 595.323515,59.5404667 C610.629881,65.3117331 620.379826,79.8972971 625.307217,94.9025897 C602.557345,104.34648 579.912312,113.685438 557.16244,123.129329 C560.307583,129.110459 565.130137,134.566929 571.6301,136.770504 C580.751017,140.023399 591.654181,138.869146 599.307364,132.783083 C602.347669,130.474577 604.758946,127.431545 607.065385,124.493446 C612.831481,128.375935 618.597578,132.153491 624.363674,136.035979 C616.186301,148.313036 602.452507,156.91747 587.670333,158.281587 C571.315586,160.275298 553.912458,153.979371 543.323808,141.177653 C525.92068,121.030686 527.59809,87.2425452 547.202819,69.0892892 M558.420497,88.5017306 C554.856001,93.6434043 553.388268,99.9393312 553.493106,106.130326 C568.694633,99.8343991 583.89616,93.5384722 599.097687,87.1376131 C596.581573,81.2614146 590.500962,77.6937227 584.315513,76.7493337 C574.355891,74.9654877 563.976918,80.3170256 558.420497,88.5017306 L558.420497,88.5017306 Z" id="Shape" fill="#FA3913"></path>
        </g>
    </g>
</svg>