<?xml version="1.0" encoding="UTF-8"?>
<svg width="100px" height="100px" viewBox="0 0 100 100" version="1.1" xmlns="http://www.w3.org/2000/svg" xmlns:xlink="http://www.w3.org/1999/xlink">
    <title>logo-android</title>
    <g id="logo-android" stroke="none" stroke-width="1" fill="none" fill-rule="evenodd">
        <g id="android" transform="translate(13.198379, 7.801288)">
            <path d="M25.43395,50.8682572 C28.2433938,50.8682572 30.5209543,53.2822528 30.5209543,56.2599937 L30.5209543,79.3890707 C30.5209543,82.3668116 28.2433938,84.7804286 25.43395,84.7804286 C22.6248634,84.7804286 20.3473029,82.3668116 20.3473029,79.3890707 L20.3473029,56.2599937 C20.3473029,53.2826314 22.6248634,50.8686358 25.43395,50.8686358 L25.43395,50.8682572 Z" id="Path" fill="#FFFFFF" fill-rule="nonzero"></path>
            <path d="M13.5971447,23.73852 C13.5799063,23.9425953 13.5648686,24.1489381 13.5648686,24.3575484 L13.5648686,59.3364288 C13.5648686,63.0982165 16.4546797,66.1287343 20.0420946,66.1287343 L54.5643158,66.1287343 C58.1520975,66.1287343 61.0419086,63.0978385 61.0419086,59.3364288 L61.0419086,24.3575484 C61.0419086,24.1489381 61.0345731,23.9418395 61.0177015,23.73852 L13.5971447,23.73852 Z" id="Path" fill="#FFFFFF" fill-rule="nonzero"></path>
            <path d="M49.0696418,51.5439032 C51.9504032,51.5439032 54.2857796,53.9098038 54.2857796,56.8282179 L54.2857796,79.4964849 C54.2857796,82.414899 51.9504032,84.7804286 49.0696418,84.7804286 C46.1892466,84.7804286 43.8538702,82.414899 43.8538702,79.4964849 L43.8538702,56.8282179 C43.8538702,53.9101749 46.1892466,51.5442742 49.0696418,51.5442742 L49.0696418,51.5439032 Z M5.21613783,27.3468547 C8.09653302,27.3468547 10.4319094,29.7127554 10.4319094,32.6311695 L10.4319094,55.2994365 C10.4319094,58.2178506 8.09653302,60.5837513 5.21613783,60.5837513 C2.33537636,60.5837513 0,58.2178506 0,55.2998075 L0,32.6315406 C-0.000366276092,29.7131264 2.33501009,27.3468547 5.21613783,27.3468547 Z M69.3910056,27.3468547 C72.2714008,27.3468547 74.6067772,29.7127554 74.6067772,32.6311695 L74.6067772,55.2994365 C74.6067772,58.2178506 72.2714008,60.5837513 69.3910056,60.5837513 C66.5102442,60.5837513 64.1748678,58.2178506 64.1748678,55.2998075 L64.1748678,32.6315406 C64.1748678,29.7131264 66.5102442,27.3468547 69.3910056,27.3468547 Z M13.7815042,22.0343391 C13.9265496,11.4850049 23.0153245,2.83551553 34.6819506,1.69560857 L39.924094,1.69560857 C51.5914527,2.8358866 60.6794951,11.485747 60.8245404,22.0343391 L13.7815042,22.0343391 Z" id="Shape" fill="#FFFFFF" fill-rule="nonzero"></path>
            <path d="M15.2604772,0 L20.8475899,10.1736514 M59.3463,0 L53.7588154,10.1736514" id="Shape" stroke="#FFFFFF" stroke-width="3" stroke-linecap="round" stroke-linejoin="round"></path>
            <path d="M29.1130804,12.717066 C29.1174454,14.117766 27.9177967,15.2565836 26.4332815,15.260469 C24.9494959,15.2639854 23.742917,14.1318646 23.73853,12.7311647 L23.73853,12.717066 C23.7345278,11.3160136 24.9341766,10.1775484 26.4183269,10.1736613 C27.9021126,10.1697941 29.1086915,11.3015625 29.1130804,12.7029674 L29.1130804,12.717066 Z M49.1726367,12.717066 C49.1770017,14.117766 47.977353,15.2565836 46.4928379,15.260469 C45.0090522,15.2639854 43.8024734,14.1318646 43.7980864,12.7311647 L43.7980864,12.717066 C43.7940842,11.3160136 44.9937329,10.1775484 46.4778833,10.1736613 C47.961669,10.1697941 49.1682478,11.3015625 49.1726367,12.7029674 L49.1726367,12.717066 Z" id="Shape" fill="#1A77F3" fill-rule="nonzero"></path>
        </g>
    </g>
</svg>