<?xml version="1.0" encoding="UTF-8"?>
<svg width="800px" height="400px" viewBox="0 0 800 400" version="1.1" xmlns="http://www.w3.org/2000/svg" xmlns:xlink="http://www.w3.org/1999/xlink">
    <title>logo-coinbase</title>
    <g id="logo-coinbase" stroke="none" stroke-width="1" fill="none" fill-rule="evenodd">
        <g id="coinbase-1" transform="translate(35.000000, 136.000000)" fill="#0052FF" fill-rule="nonzero">
            <path d="M147.131422,36.01433 C120.64856,36.01433 99.9559293,55.9290614 99.9559293,82.5891051 C99.9559293,109.249149 120.125785,128.993445 147.131422,128.993445 C174.137059,128.993445 194.657638,108.908278 194.657638,82.4186696 C194.657638,56.0994969 174.487782,36.01433 147.131422,36.01433 L147.131422,36.01433 Z M147.310092,109.780121 C132.229022,109.780121 121.177953,98.1773972 121.177953,82.5956603 C121.177953,66.8369328 132.050352,55.2407643 147.131422,55.2407643 C162.391162,55.2407643 173.435614,67.0139235 173.435614,82.5956603 C173.435614,98.1773972 162.391162,109.780121 147.310092,109.780121 Z M200.441251,56.2764876 L213.596656,56.2764876 L213.596656,127.269424 L234.640009,127.269424 L234.640009,37.7449057 L200.441251,37.7449057 L200.441251,56.2764876 Z M46.9968229,55.2342091 C58.0478922,55.2342091 66.8159562,61.9860765 70.1445118,72.02866 L92.418703,72.02866 C88.3820849,50.5603435 70.4952344,36.01433 47.1754929,36.01433 C20.692631,36.01433 0,55.9290614 0,82.5956603 C0,109.262259 20.1698559,129 47.1754929,129 C69.9724592,129 88.2100323,114.453986 92.2466504,92.8086793 L70.1445118,92.8086793 C66.9880088,102.851263 58.2199448,109.780121 47.1688755,109.780121 C31.9091355,109.780121 21.2154061,98.1773972 21.2154061,82.5956603 C21.2220235,66.8369328 31.7437003,55.2342091 46.9968229,55.2342091 Z M600.278203,73.9362264 L584.846411,71.687789 C577.481237,70.6520657 572.220399,68.2266375 572.220399,62.5104934 C572.220399,56.2764876 579.062797,53.1627623 588.353636,53.1627623 C598.524591,53.1627623 605.016267,57.4892017 606.419157,64.5884954 L626.761065,64.5884954 C624.47806,46.5813304 610.449158,36.0208852 588.883029,36.0208852 C566.608838,36.0208852 551.87849,47.2761827 551.87849,63.2053458 C551.87849,78.4396565 561.526669,87.2760811 580.988463,90.0423802 L596.420255,92.2908176 C603.964099,93.326541 608.17277,96.276386 608.17277,101.815539 C608.17277,108.914833 600.807596,111.858123 590.636642,111.858123 C578.182682,111.858123 571.168231,106.836831 570.116063,99.2196758 L549.423432,99.2196758 C551.355715,116.708979 565.205947,129 590.457972,129 C613.433608,129 628.686731,118.60999 628.686731,100.773261 C628.686731,84.8440978 617.642279,76.53209 600.278203,73.9362264 L600.278203,73.9362264 Z M224.118333,0.86528787 C216.402436,0.86528787 210.612205,6.40444128 210.612205,14.0215966 C210.612205,21.638752 216.395819,27.1779054 224.118333,27.1779054 C231.834229,27.1779054 237.62446,21.638752 237.62446,14.0215966 C237.62446,6.40444128 231.834229,0.86528787 224.118333,0.86528787 Z M532.939472,68.397073 C532.939472,49.0067585 521.014905,36.0208852 495.762881,36.0208852 C471.913747,36.0208852 458.58629,47.9710351 455.952562,66.3256263 L476.823863,66.3256263 C477.87603,59.2263326 483.487591,53.339753 495.412158,53.339753 C506.112505,53.339753 511.373343,58.0136186 511.373343,63.7297627 C511.373343,71.1764825 501.725164,73.0774938 489.800597,74.2902078 C473.66736,76.0207836 453.676174,81.559937 453.676174,102.339956 C453.676174,118.44611 465.779411,128.829565 485.069151,128.829565 C500.150221,128.829565 509.619731,122.595559 514.357794,112.723411 C515.059239,121.55328 521.722968,127.269424 531.020424,127.269424 L543.295714,127.269424 L543.295714,108.744398 L532.946089,108.744398 L532.946089,68.397073 L532.939472,68.397073 Z M512.246841,90.9076681 C512.246841,102.857818 501.725164,111.687687 488.920482,111.687687 C481.025916,111.687687 474.362187,108.396971 474.362187,101.474668 C474.362187,92.644799 485.062534,90.2193709 494.882766,89.1836475 C504.352275,88.3183597 509.613113,86.2403577 512.246841,82.2547894 L512.246841,90.9076681 Z M400.538397,36.01433 C388.785883,36.01433 378.965651,40.8651862 371.9512,49.0002033 L371.9512,0 L350.907846,0 L350.907846,127.269424 L371.600477,127.269424 L371.600477,115.496265 C378.614929,123.978708 388.61383,129 400.538397,129 C425.790422,129 444.90811,109.262259 444.90811,82.5956603 C444.90811,55.9290614 425.439699,36.01433 400.538397,36.01433 Z M397.381894,109.780121 C382.300824,109.780121 371.249755,98.1773972 371.249755,82.5956603 C371.249755,67.0139235 382.472877,55.2407643 397.553947,55.2407643 C412.813687,55.2407643 423.507416,66.843488 423.507416,82.5956603 C423.507416,98.1773972 412.462964,109.780121 397.381894,109.780121 Z M300.575851,36.01433 C286.897671,36.01433 277.950937,41.5534834 272.690098,49.3476295 L272.690098,37.7449057 L251.818797,37.7449057 L251.818797,127.262869 L272.862151,127.262869 L272.862151,78.610092 C272.862151,64.9293663 281.630215,55.2342091 294.60695,55.2342091 C306.710187,55.2342091 314.247413,63.7166523 314.247413,76.0142284 L314.247413,127.269424 L335.290769,127.269424 L335.290769,74.4606433 C335.297384,51.9434931 323.551487,36.01433 300.575851,36.01433 L300.575851,36.01433 Z M729,79.6523705 C729,54.0280502 710.060982,36.0208852 684.630288,36.0208852 C657.624651,36.0208852 637.805517,56.1060521 637.805517,82.5956603 C637.805517,110.474973 659.027541,129 684.98101,129 C706.904479,129 724.089884,116.184562 728.470607,98.0069617 L706.547139,98.0069617 C703.390636,105.971543 695.674739,110.474973 685.325115,110.474973 C671.818988,110.474973 661.648034,102.162966 659.371646,87.6169521 L728.993383,87.6169521 L728.993383,79.6523705 L729,79.6523705 Z M660.602484,72.7235124 C663.937657,60.2555008 673.407166,54.1984857 684.279565,54.1984857 C696.204132,54.1984857 705.322919,60.9503532 707.427254,72.7235124 L660.602484,72.7235124 Z" id="Shape"></path>
        </g>
    </g>
</svg>