<?xml version="1.0" encoding="UTF-8"?>
<svg width="800px" height="400px" viewBox="0 0 800 400" version="1.1" xmlns="http://www.w3.org/2000/svg" xmlns:xlink="http://www.w3.org/1999/xlink">
    <title>logo-pinterest</title>
    <g id="logo-pinterest" stroke="none" stroke-width="1" fill="none" fill-rule="evenodd">
        <g id="pinterest" transform="translate(81.000000, 120.000000)" fill="#CB2027" fill-rule="nonzero">
            <path d="M146.489778,56.3992037 C153.412671,56.3992037 160.054447,50.6861993 161.209807,43.6380851 C162.575232,36.7777845 157.88274,31.0647802 150.964996,31.0647802 C144.045192,31.0647802 137.402386,36.7777845 136.229521,43.6380851 C134.879541,50.6861993 139.379473,56.3992037 146.489778,56.3992037 L146.489778,56.3992037 Z M616.276501,76.7902503 L631.762651,76.7902503 C633.884931,76.7902503 635.127818,75.9359025 635.605614,73.9730461 C636.347041,70.9326219 637.109404,67.8972517 637.89265,64.8671479 C638.350881,63.1002709 637.312911,61.7610782 635.336854,61.7610782 L620.05562,61.7610782 C621.156404,57.4199298 625.442152,43.3257429 625.442152,34.1371659 C625.442152,15.7865509 609.722252,0.177606353 587.417212,0.177606353 C562.22686,0.177606353 545.838664,16.9348678 545.838664,40.514663 C545.838664,47.392316 548.427412,55.4090993 551.636059,60.3820772 C550.255226,60.3038734 548.87241,60.2650697 547.489325,60.2657144 C528.348653,60.2657144 516.292543,70.5576963 516.292543,85.5337907 C516.292543,99.58919 527.470291,105.051096 537.99416,108.685902 C547.342073,111.915479 555.950639,113.417988 555.950639,120.656978 C555.950639,125.538091 551.213869,128.402248 541.944215,128.402248 C530.945639,128.402248 524.901108,123.267996 523.364747,121.32045 C524.406836,120.508973 525.956584,118.576738 525.956584,115.357368 C525.956584,110.853924 522.765443,107.178289 516.838301,107.178289 C511.823503,107.178289 507.584093,111.232613 506.519349,116.565908 C498.46478,123.097534 489.673952,127.330486 477.205948,127.330486 C464.929474,127.330486 458.557488,121.000963 458.557488,107.532481 C461.435591,108.401119 468.929986,109.444301 473.883,109.444301 C494.670215,109.444301 508.837278,100.082201 508.837278,81.3335025 C508.837278,71.2517901 499.908465,60.6637976 482.24443,60.6637976 L482.20427,60.6637976 C458.971441,60.6637976 445.957679,75.252016 440.275613,91.2978313 C438.683676,90.917317 437.088919,90.5484845 435.491475,90.1913642 C436.762165,86.632092 437.674508,82.5073376 437.674508,77.9344843 C437.674508,70.0095664 432.723554,60.6637976 419.475012,60.6637976 C410.246548,60.6637976 401.49279,66.6554602 395.425604,75.635809 C396.935193,69.7778615 397.936093,65.8766461 398.000966,65.6153402 C398.396383,64.0832302 397.7528,62.3765761 395.342196,62.3765761 L381.744575,62.3765761 C379.806618,62.3765761 378.439133,63.055359 377.888226,65.2427752 C377.518552,66.7013929 372.846655,84.8723601 368.298326,102.565627 C365.433609,113.597636 350.613696,127.330486 331.98686,127.330486 C319.708327,127.330486 313.34149,120.584507 313.34149,107.110921 C316.554256,108.378663 323.712958,109.44328 328.663913,109.44328 C350.296538,109.44328 363.61819,100.08118 363.61819,81.3324817 C363.61819,71.2507694 354.690408,60.6627769 337.024313,60.6627769 L336.986213,60.6627769 C310.824823,60.6627769 294.799093,80.8047663 292.083688,103.642494 C290.954071,113.136268 282.870669,126.172982 274.107643,126.172982 C269.838372,126.172982 267.457629,123.515011 267.457629,119.002381 C267.457629,115.105248 270.225551,105.575749 273.259144,93.6332528 C274.27549,89.6381306 275.818029,83.5433746 277.528416,76.7902503 L291.751084,76.7902503 C293.868214,76.7902503 295.110072,75.9359025 295.590957,73.9730461 C296.271611,71.1466553 297.520676,66.2155272 297.874904,64.8671479 C298.333136,63.1002709 297.301343,61.7610782 295.319108,61.7610782 L281.333278,61.7610782 C281.333278,61.7610782 287.772197,36.2939603 287.925627,35.6396749 C288.545526,33.0500926 286.359403,31.5557495 284.072367,32.0324286 C284.072367,32.0324286 273.262233,34.1300209 271.257343,34.5444357 C269.242156,34.9486432 267.677992,36.0459239 266.949971,38.9253924 L261.224657,61.7610782 L249.994392,61.7610782 C247.877262,61.7610782 246.632315,62.6174675 246.157608,64.576241 C245.41152,67.6159531 244.650195,70.6519705 243.873661,73.6841806 C243.409251,75.4510576 244.446192,76.7902503 246.426368,76.7902503 L257.43936,76.7902503 C257.3611,77.1025925 253.461502,91.8071737 250.307431,104.975562 C248.822556,111.308147 243.849977,126.126029 235.706851,126.126029 C230.842393,126.126029 228.787047,123.693638 228.787047,118.476707 C228.787047,110.260882 236.945619,89.6942705 236.945619,80.3617712 C236.945619,67.8956425 230.19881,60.6729841 216.376708,60.6729841 C207.664139,60.6729841 198.630294,66.2492112 194.801748,71.1435931 C194.801748,71.1435931 195.963286,67.1372429 196.360763,65.5969671 C196.785013,63.9699296 195.904592,62.3714725 193.749361,62.3714725 L180.235149,62.3714725 C177.359105,62.3714725 176.564152,63.8954166 176.141961,65.571449 C175.973085,66.2441075 171.103479,85.1989925 166.428492,103.395478 C163.231172,115.855482 155.461839,126.266889 147.154985,126.266889 C142.883654,126.266889 140.981737,123.609939 140.981737,119.097308 C140.981737,115.198135 143.523118,105.57677 146.55568,93.6352942 C150.245213,79.0970914 153.500198,67.1249942 153.848248,65.7265994 C154.30236,63.9342042 153.49402,62.3724932 151.163734,62.3724932 L137.568173,62.3724932 C135.105053,62.3724932 134.225661,63.6535045 133.706675,65.433651 C133.706675,65.433651 129.880189,79.792206 125.82819,95.7767777 C122.885214,107.377331 119.635378,119.193257 119.635378,124.744986 C119.635378,134.652155 124.122953,142.119787 136.460181,142.119787 C145.982119,142.119787 153.517703,137.333602 159.27185,131.234763 C158.426439,134.535792 157.886859,136.625218 157.832284,136.83855 C157.335952,138.725873 157.937316,140.393739 160.180074,140.393739 L174.092793,140.393739 C176.514724,140.393739 177.445603,139.428132 177.951201,137.334623 C178.438265,135.337062 188.829298,94.8234195 188.829298,94.8234195 C191.575595,83.9404371 198.368742,76.7341104 207.925691,76.7341104 C212.457545,76.7341104 216.379797,79.7085064 215.925685,85.4888787 C215.421116,91.8480027 207.684734,114.692875 207.684734,124.719468 C207.684734,132.308567 210.523707,142.126932 224.935846,142.126932 C234.759496,142.126932 241.991309,137.458131 247.250154,131.432784 C249.175755,137.827634 254.277051,142.126932 263.634232,142.126932 C279.185255,142.126932 288.558912,132.984288 294.065923,123.800815 C298.635877,134.470465 309.338919,142.121829 325.034105,142.121829 C341.031003,142.121829 353.41045,135.437093 362.183773,126.349568 L359.447773,136.987576 C358.950412,138.903479 359.791703,140.410071 362.061234,140.410071 L375.83082,140.410071 C377.716261,140.410071 379.058003,139.459775 379.547126,137.496918 C379.789113,136.533353 381.778557,128.911591 384.588697,118.081686 C389.962872,97.3578826 398.60027,75.8573066 411.579022,75.8573066 C416.156184,75.8573066 418.033386,78.3938111 418.033386,82.3899541 C418.033386,84.2742146 417.48145,85.9022728 417.004683,86.7749937 C410.714046,85.5358321 405.65291,88.6143422 405.65291,95.272539 C405.65291,99.6106252 410.257875,103.55369 416.473341,103.55369 C421.222469,103.55369 425.14884,102.399249 428.280257,100.309823 C431.362444,100.94 434.437745,101.602829 437.505632,102.298197 C437.033749,105.303231 436.792443,108.33941 436.78379,111.380619 C436.78379,128.014372 448.76576,142.120808 470.242895,142.120808 C487.072847,142.120808 498.622329,136.017886 508.592201,128.19402 C513.384577,135.96685 525.484967,142.248399 541.360356,142.248399 C563.118609,142.248399 575.458926,131.03368 575.458926,116.209674 C575.458926,102.792229 564.34708,97.8539555 552.888214,93.7424705 C543.573252,90.4067374 535.803918,88.592907 535.803918,82.0674046 C535.803918,76.7187995 540.051566,74.2721188 547.331776,74.2721188 C552.05516,74.2721188 555.60156,75.2805963 557.495238,75.807291 C559.373471,80.466906 563.259682,85.6266767 569.89425,85.6266767 C575.508353,85.6266767 578.029138,81.2253055 578.029138,77.1720019 C578.029138,65.6337133 558.639271,64.4241528 558.639271,39.6786883 C558.639271,24.2912413 567.422891,11.5974907 585.61415,11.5974907 C598.254119,11.5974907 606.508456,19.5428232 606.508456,32.366206 C606.508456,42.9388877 600.039675,61.7600575 600.039675,61.7600575 L589.044189,61.7600575 C586.931178,61.7600575 585.684171,62.6164467 585.206376,64.5752203 C584.462184,67.6157365 583.699481,70.6517717 582.918309,73.6831598 C582.455959,75.4500368 583.4929,76.7892296 585.474106,76.7892296 L596.210099,76.7892296 C596.210099,76.7892296 585.11164,117.363095 585.11164,124.741924 C585.11164,134.649092 590.744278,142.114684 603.086655,142.114684 C620.543713,142.114684 631.452702,130.869343 636.195651,114.51731 C636.564295,113.25263 635.841423,112.222718 634.549108,112.222718 L627.888797,112.222718 C626.559412,112.222718 625.788142,112.973972 625.452449,114.262129 C623.94801,120.066998 620.219348,126.174003 612.877353,126.174003 C608.608081,126.174003 606.228369,123.516032 606.228369,119.004422 C606.228369,115.106269 608.831533,105.979957 612.034002,93.6352942 C613.560066,87.7569322 616.276501,76.7902503 616.276501,76.7902503 L616.276501,76.7902503 Z M478.628009,76.0971772 C484.801256,76.0971772 487.733935,80.1678332 487.733935,85.0193447 C487.733935,93.2249623 481.313552,98.228562 471.271598,98.228562 C467.677831,98.228562 462.653765,97.3844215 459.687105,96.4045243 C460.934111,88.8582958 466.444211,76.0971772 478.628009,76.0971772 Z M333.409951,76.0971772 C340.167057,76.0971772 342.512788,80.1678332 342.512788,85.0193447 C342.512788,93.2249623 336.095494,98.228562 326.05457,98.228562 C322.459773,98.228562 317.435707,97.3844215 314.470077,96.4045243 C315.709875,88.8582958 320.595957,76.0971772 333.409951,76.0971772 Z M66.2602117,0 C22.2103052,0 0,31.3056716 0,57.411764 C0,73.2187294 6.03732297,87.2812738 18.986212,92.5206613 C21.1095209,93.3821542 23.0114372,92.5502623 23.6272174,90.2199445 C24.0555862,88.6071971 25.0688432,84.5396034 25.5208959,82.8441772 C26.1428544,80.5393775 25.9008672,79.7309624 24.187392,77.7221733 C20.4535811,73.3565275 18.0676904,67.7047667 18.0676904,59.6992114 C18.0676904,36.4736081 35.5978603,15.6814161 63.7157421,15.6814161 C88.6146794,15.6814161 102.292619,30.7616245 102.292619,50.9015725 C102.292619,77.4006445 90.4630497,99.7657756 72.8988986,99.7657756 C63.199846,99.7657756 55.9392006,91.8143188 58.2663965,82.062301 C61.0528533,70.4198983 66.4507122,57.8547592 66.4507122,49.4511206 C66.4507122,41.9283688 62.3770896,35.653965 53.9466678,35.653965 C44.0313713,35.653965 36.0663887,45.8214184 36.0663887,59.4419884 C36.0663887,68.1171401 39.0237811,73.9842741 39.0237811,73.9842741 C39.0237811,73.9842741 28.8767948,116.600612 27.0984464,124.064162 C23.5561658,138.927976 26.5650449,157.148959 26.8193888,158.989329 C26.9697298,160.079464 28.3835528,160.338729 29.0240466,159.516023 C29.9384493,158.333002 41.7463944,143.881561 45.7623521,129.440327 C46.8981473,125.351298 52.2836494,104.179396 52.2836494,104.179396 C55.5046534,110.270069 64.9194997,115.635005 74.931591,115.635005 C104.735145,115.635005 124.957037,88.7011039 124.957037,52.6490557 C124.957037,25.388522 101.663453,0 66.2602117,0 Z" id="Shape"></path>
        </g>
    </g>
</svg>