<?xml version="1.0" encoding="UTF-8"?>
<svg width="100px" height="100px" viewBox="0 0 100 100" version="1.1" xmlns="http://www.w3.org/2000/svg" xmlns:xlink="http://www.w3.org/1999/xlink">
    <title>logo-ios</title>
    <g id="logo-ios" stroke="none" stroke-width="1" fill="none" fill-rule="evenodd">
        <g id="apple-13" transform="translate(19.000000, 12.000000)" fill="#FFFFFF" fill-rule="nonzero">
            <path d="M52.6729543,39.6333241 C52.6394793,33.4882333 55.4179065,28.850113 61.0417109,25.4343132 C57.8950584,20.9301458 53.1416047,18.4520165 46.8650372,17.9664372 C40.92322,17.4976019 34.4290648,21.4324693 32.0523379,21.4324693 C29.5417109,21.4324693 23.7840064,18.1338783 19.2648778,18.1338783 C9.92534538,18.2845754 0,25.5850102 0,40.4370417 C0,44.8240003 0.803400638,49.3560745 2.41020191,54.0332644 C4.55260361,60.1783552 12.2853348,75.2480602 20.3528162,74.9968985 C24.5706695,74.8964338 27.5499469,71.9997016 33.0398512,71.9997016 C38.3623804,71.9997016 41.1240701,74.9968985 45.8273114,74.9968985 C53.9617428,74.8796896 60.9580234,61.1830022 63,55.0211673 C52.0871413,49.8807235 52.6729543,39.9514623 52.6729543,39.6333241 Z M43.1995218,12.1394846 C47.7688629,6.71439078 47.3504251,1.77487636 47.216525,0 C43.1827843,0.234417633 38.5130181,2.74603513 35.8517535,5.84369671 C32.9226886,9.15903181 31.1987248,13.2613404 31.5669501,17.8827166 C35.935441,18.2175989 39.9189692,15.9738873 43.1995218,12.1394846 Z" id="Shape"></path>
        </g>
    </g>
</svg>