<?xml version="1.0" standalone="no"?>
<!DOCTYPE svg PUBLIC "-//W3C//DTD SVG 20010904//EN"
 "http://www.w3.org/TR/2001/REC-SVG-20010904/DTD/svg10.dtd">
<svg version="1.0" xmlns="http://www.w3.org/2000/svg"
 width="260.000000pt" height="260.000000pt" viewBox="0 0 260.000000 260.000000"
 preserveAspectRatio="xMidYMid meet">
<metadata>
Created by potrace 1.14, written by Peter Selinger 2001-2017
</metadata>
<g transform="translate(0.000000,260.000000) scale(0.100000,-0.100000)"
fill="#000000" stroke="none">
<path d="M329 2271 l-29 -29 0 -472 0 -472 29 -29 29 -29 206 0 206 0 0 -441
0 -441 29 -29 29 -29 472 0 472 0 29 29 29 29 0 441 0 441 206 0 206 0 29 29
29 29 0 472 0 472 -29 29 -29 29 -942 0 -942 0 -29 -29z m911 -501 l0 -410
-410 0 -410 0 0 410 0 410 410 0 410 0 0 -410z m940 0 l0 -410 -410 0 -410 0
0 410 0 410 410 0 410 0 0 -410z m-470 -940 l0 -410 -410 0 -410 0 0 410 0
410 410 0 410 0 0 -410z"/>
<path d="M815 1930 c-11 -4 -66 -58 -122 -118 -84 -90 -103 -116 -103 -141 0
-32 30 -61 63 -61 11 0 57 37 103 82 l84 82 73 -71 c94 -92 111 -101 146 -76
15 12 27 32 29 49 2 25 -13 45 -110 147 -62 64 -120 117 -128 117 -8 -1 -24
-5 -35 -10z"/>
<path d="M1734 1927 c-12 -7 -67 -60 -123 -118 -108 -114 -120 -140 -81 -179
35 -35 58 -25 148 63 l85 84 75 -79 c41 -43 86 -81 99 -84 36 -10 73 20 73 59
0 27 -16 49 -108 144 -59 62 -116 114 -127 117 -11 3 -30 0 -41 -7z"/>
<path d="M1086 969 c-50 -39 -38 -63 93 -193 103 -101 123 -117 143 -111 28 9
214 189 234 228 8 15 12 37 9 48 -9 26 -50 52 -72 45 -10 -3 -54 -42 -98 -86
l-79 -80 -87 85 c-47 47 -93 85 -101 85 -9 0 -27 -9 -42 -21z"/>
</g>
</svg>
